<?xml version="1.0"?>
<svg version="1.1" viewBox="0 0 144 600" xmlns="http://www.w3.org/2000/svg" xmlns:xlink="http://www.w3.org/1999/xlink">
	<defs>
		<g id="logo">
			<path d="m 92.52,50.44 v -48.91 c -0.52,-2.14 -2.6,-2.06 -3.52,0.39 c -0.53,1.33 -1.2,3.08 -1.55,3.84 a 49.49,49.49 0 0 1 -6.16,10 a 38.93,38.93 0 0 1 -31.23,14.73 h -30.59 a 7.46,7.46 0 0 0 -7.47,7.44 v 142.6 a 7.46,7.46 0 0 0 7.43,7.44 h 30.63 a 42.58,42.58 0 0 0 42.46,-42.46 z m 24.07,0 h -15.29 c -3.75,0 -4.13,8 0,8 h 15.29 v 87.07 a 66.15,66.15 0 0 1 -14.13,40.91 c -0.21,0.26 -1.13,1.31 0.06,1.55 h 22 a 7.46,7.46 0 0 0 7.44,-7.44 v -142.6 a 7.46,7.46 0 0 0 -7.44,-7.44 h -5.77 a 2.42,2.42 0 0 0 -2.18,2.13 v 17.82 z"/>
			<path d="m 19.47,18.46 h 48.06 c 0.42,0 0.86,0 1,0.31 a 0.55,0.55 0 0 1 -0.23,0.69 a 32.94,32.94 0 0 1 -18.22,5 h -32.32 l -0.33,0.05 l -0.33,0.05 l -0.32,0.07 a 13.51,13.51 0 0 0 -10.49,10.59 l -0.06,0.33 l -0.06,0.33 v 1.34 h -0.17 v 145.35 l 0.06,0.32 l 0.06,0.32 a 13.51,13.51 0 0 0 10.48,10.47 l 0.32,0.06 l 0.33,0.06 l 0.33,0.05 h 108.67 l 0.34,-0.05 l 0.33,-0.06 l 0.33,-0.06 a 13.5,13.5 0 0 0 10.47,-10.47 l 0.07,-0.32 l 0.05,-0.32 v -146.69 l -0.05,-0.33 l -0.07,-0.33 a 13.48,13.48 0 0 0 -10.47,-10.47 l -0.33,-0.07 l -0.33,-0.05 l -0.34,-0.05 h -24.43 a 3,3 0 1 1 0,-6 h 22.72 a 19.53,19.53 0 0 1 19.46,19.35 v 142.6 a 19.53,19.53 0 0 1 -19.48,19.47 h -105.05 a 19.53,19.53 0 0 1 -19.47,-19.47 v -142.6 a 19.53,19.53 0 0 1 19.47,-19.47 z"/>
		</g>
	</defs>
	<use href="#logo" xlink:href="#logo" fill="#aaa"/>
	<use href="#logo" xlink:href="#logo" fill="#eee" transform="translate(0,400)"/>
</svg>
