<?xml version="1.0"?>
<svg version="1.1" viewBox="0 0 100 80" xmlns="http://www.w3.org/2000/svg">
	<g id="icon">
		<path id="pages_back" fill="#ffffff"
			d="m 2,15 v 61 l 24,-4 l 24,5 l 24,-5 l 24,4 v -61 h -96 z"/>
		<path id="pages_front" fill="#ffffff"
			d="m 13,3 v 58 l 22,3 l 15,9 l 19,-10 l 18,-2 v -58 l -18,1 l -19,12 l -15,-11 l -22,-2 z"/>
		<path id="page_border" fill="#1060d0"
			d="m 50,80 c 0.6,0 1.1,-0.2 1.6,-0.4 c 7.3,-3.2 14.7,-4.4 22,-4.4 c 7.5,0 15.1,1.5 22.8,3.6 c 0.2,0.1 0.5,0.1 0.9,0.1 c 1.5,0 2.7,-1.2 2.7,-2.6 v -61.3 c 0,-1.5 -1.2,-2.7 -2.7,-2.7 h -7.5 v -8.9 c 0,-1.3 -1,-2.4 -2.3,-2.6 c -8,-1.1 -16.4,-0.5 -23.7,2.2 c -5.4,2 -10.1,5 -13.8,9.3 c -3.4,-4.6 -8.2,-7.7 -13.5,-9.7 c -7.7,-2.9 -16.5,-3.2 -23.9,-1.8 c -1.3,0.3 -2.2,1.3 -2.2,2.6 v 8.9 h -7.7 c -1.5,0 -2.7,1.2 -2.7,2.7 v 61.3 c 0,1.4 1.2,2.6 2.7,2.6 c 0.3,0 0.6,0 0.9,-0.1 c 7.7,-2.1 15.3,-3.6 22.8,-3.6 c 7.3,0 14.7,1.2 22,4.4 c 0.5,0.2 1,0.4 1.6,0.4 z m -4.2,-7.1 c -6.5,-2.2 -12.9,-3 -19.4,-3 c -7,0.1 -14,1.2 -20.9,2.9 v -55.2 h 4.9 v 43.4 c 0,1.4 1.3,3 2.9,2.9 c 6.6,-0.6 13.2,0.1 19.2,2 c 4.8,1.5 9.3,3.8 13.3,7 z m 9.6,-0.4 c 4.5,-2.9 9,-5.3 13.5,-6.9 c 5.7,-1.9 11.5,-2.7 17.5,-1.8 c 0.2,0.1 0.5,0.1 0.7,0.1 c 1.5,0 2.7,-1.2 2.7,-2.7 v -43.6 h 4.7 v 55.2 c -6.9,-1.8 -13.9,-2.9 -20.9,-2.9 c -6,0 -12.1,0.7 -18.2,2.6 z m -8.1,-5.2 c -4,-2.9 -8.5,-5 -13.1,-6.5 c -5.9,-1.8 -12.1,-2.6 -18.3,-2.4 v -52.7 c 5.8,-0.8 12.7,-0.3 18.6,1.9 c 5.3,1.9 9.9,5.2 12.8,10.1 v 49.6 z m 5.5,0.5 v -50 c 3,-4.6 7.6,-7.8 12.9,-9.8 c 5.7,-2.1 12.3,-2.8 18.6,-2.2 v 52.4 c -5.9,-0.4 -11.6,0.5 -17.2,2.4 c -4.9,1.7 -9.7,4.2 -14.3,7.2 z"/>
		<path id="number_left" fill="#183060"
			d="m 29.26,38.77 c 0.13,1.34 0.49,2.42 1.09,3.27 0.6,0.85 1.33,1.39 2.19,1.67 0.37,0.12 0.71,0.16 1.03,0.14 0.47,-0.06 0.89,-0.27 1.26,-0.65 0.3,-0.29 0.53,-0.67 0.69,-1.14 0.18,-0.52 0.28,-1.15 0.28,-1.9 0.01,-0.73 -0.08,-1.41 -0.25,-2.05 -0.14,-0.53 -0.35,-1.02 -0.62,-1.48 -0.37,-0.64 -0.8,-1.12 -1.28,-1.44 -0.27,-0.19 -0.56,-0.34 -0.86,-0.43 -0.57,-0.18 -1.25,-0.24 -2.06,-0.18 0.17,-1.41 0.33,-2.81 0.48,-4.22 1.02,0.3 1.82,0.34 2.42,0.08 0.11,-0.06 0.22,-0.12 0.31,-0.2 0.6,-0.49 0.89,-1.28 0.87,-2.4 -0.02,-0.95 -0.26,-1.78 -0.72,-2.48 -0.17,-0.26 -0.37,-0.49 -0.58,-0.68 -0.36,-0.34 -0.79,-0.57 -1.27,-0.71 -0.76,-0.21 -1.41,-0.05 -1.95,0.46 -0.53,0.51 -0.85,1.37 -0.94,2.56 -1.41,-0.57 -2.85,-1.06 -4.31,-1.49 0.27,-1.64 0.69,-2.93 1.25,-3.85 0.58,-0.93 1.39,-1.61 2.43,-1.99 1.04,-0.39 2.22,-0.44 3.5,-0.09 0.4,0.11 0.78,0.25 1.14,0.41 0.69,0.3 1.33,0.7 1.93,1.21 0.81,0.72 1.53,1.62 2.15,2.69 1.08,1.85 1.62,3.72 1.65,5.46 0.05,2.51 -0.96,3.89 -3.12,4.46 1.3,0.88 2.31,2.15 3.05,3.73 0.75,1.59 1.11,3.26 1.1,4.95 -0.02,2.47 -0.73,4.15 -2.18,5.16 -0.75,0.53 -1.6,0.8 -2.56,0.84 -0.61,0.05 -1.26,0.01 -1.93,-0.12 -0.32,-0.07 -0.66,-0.16 -1,-0.27 -2.12,-0.68 -3.89,-1.76 -5.31,-3.45 -1.41,-1.7 -2.22,-3.65 -2.42,-6.01 1.54,-0.03 3.06,0.01 4.54,0.12 z"/>
		<path id="number_right" fill="#183060"
			d="m 76.49,40.28 c 0.02,1.61 0.03,3.21 0.05,4.82 -2.52,0.22 -5.08,0.7 -7.62,1.47 -0.57,0.2 -1.12,0.42 -1.66,0.64 -2.27,0.86 -4.44,1.94 -6.5,3.18 0.11,-1.91 0.55,-3.92 1.32,-5.99 0.75,-2.02 2.36,-5.17 4.85,-8.8 0,-0 0.2,-0.29 0.2,-0.29 0,0 0,0 0,0 0.61,-0.95 1.18,-1.82 1.65,-2.53 0.99,-1.37 1.62,-2.28 1.93,-2.86 0.65,-1.23 0.97,-2.36 0.97,-3.41 -0,-1.16 -0.29,-1.99 -0.85,-2.48 -0.5,-0.45 -1.18,-0.59 -2.03,-0.4 0,0 0,0 0,0 -0.09,0.03 -0.18,0.06 -0.28,0.09 -0.53,0.19 -0.98,0.47 -1.37,0.84 -0.31,0.27 -0.59,0.6 -0.82,0.98 -0.55,0.87 -0.88,2.11 -0.97,3.67 -1.46,0.45 -2.88,0.98 -4.25,1.58 0.27,-3.03 1.08,-5.58 2.43,-7.48 1.01,-1.42 2.23,-2.55 3.66,-3.3 0.46,-0.26 0.95,-0.48 1.48,-0.67 0.06,-0.02 0.11,-0.04 0.17,-0.06 2.31,-0.63 4.14,-0.21 5.47,1 1.37,1.25 2.05,3.02 2.06,5.15 0.01,1.22 -0.18,2.4 -0.57,3.55 -0.38,1.14 -0.99,2.35 -1.84,3.7 -0.58,0.92 -1.57,2.18 -3.08,4.06 -0.87,1.09 -1.56,2 -2.06,2.68 -0.33,0.5 -0.58,0.89 -0.73,1.15 -0.36,0.63 -0.65,1.23 -0.87,1.79 0.53,-0.22 1.07,-0.43 1.62,-0.63 2.56,-0.77 5.13,-1.25 7.64,-1.47 z"/>
	</g>
</svg>
