<?xml version="1.0"?>
<svg version="1.1" viewBox="0 0 1280 640" xmlns="http://www.w3.org/2000/svg">
	<defs>
		<style>
			#background {
				fill: #183060;
			}
			.shelf {
				fill: #604830;
				stroke: #000000;
				stroke-width: 10;
				stroke-linejoin: miter;
				paint-order: stroke markers fill;
			}
			.book {
				fill: #d0c19e;
				stroke: #000000;
				stroke-width: 10;
				stroke-linejoin: miter;
				paint-order: stroke markers fill;
			}
			.label {
				font-family: Arial;
				font-weight: bold;
				font-size: 120px;
				fill: #202020;
			}
		</style>
	</defs>
	<rect id="background" width="1280" height="640" x="0" y="0"/>
	<g id="book-1" transform="rotate(18,175,490)">
		<rect id="book-1_body" class="book" width="70" height="310" x="100" y="170"/>
	</g>
	<g id="book-2">
		<rect id="book-2_body" class="book" width="70" height="360" x="275" y="120"/>
		<text id="book-2_label" class="label" text-anchor="middle" dominant-baseline="mathematical"  x="310" y="340">
			<tspan x="310" y="340">1</tspan>
		</text>
	</g>
	<g id="book-3">
		<rect id="book-3_body" class="book" width="125" height="265" x="350" y="215"/>
		<text id="book-3_label" class="label" text-anchor="middle" dominant-baseline="mathematical" x="412.5" y="340">
			<tspan x="412.5" y="340">2</tspan>
		</text>
	</g>
	<g id="book-4" transform="rotate(-7,490,200)">
		<rect id="book-4_body" class="book" width="40" height="370" x="480" y="110"/>
		<text id="book-4_label" class="label" text-anchor="middle" dominant-baseline="central" x="500" y="340">
			<tspan x="500" y="340">:</tspan>
		</text>
	</g>
	<g id="book-5">
		<rect id="book-5_body" class="book" width="80" height="270" x="560" y="210"/>
		<text id="book-5_label" class="label" text-anchor="middle" dominant-baseline="mathematical" x="600" y="340">
			<tspan x="600" y="340">2</tspan>
		</text>
	</g>
	<g id="book-6">
		<rect id="book-6_body" class="book" width="75" height="315" x="645" y="165"/>
		<text id="book-6_label" class="label" text-anchor="middle" dominant-baseline="mathematical" x="682.5" y="340">
			<tspan x="682.5" y="340">3</tspan>
		</text>
	</g>
	<g id="book-7">
		<rect id="book-7_body" class="book" width="65" height="330" x="725" y="150"/>
		<text id="book-7_label" class="label" text-anchor="middle" dominant-baseline="central" x="757.5" y="340">
			<tspan x="757.5" y="340">:</tspan>
		</text>
	</g>
	<g id="book-8" transform="rotate(-12,850,360)">
		<rect id="book-8_body" class="book" width="75" height="365" x="840" y="115"/>
		<text id="book-8_label" class="label" text-anchor="middle" dominant-baseline="mathematical" x="877.5" y="340">
			<tspan x="877.5" y="340">3</tspan>
		</text>
	</g>
	<g id="book-9" transform="rotate(-15,939,302)">
		<rect id="book-9_body" class="book" width="105" height="355" x="920" y="125"/>
		<text id="book-9_label" class="label" text-anchor="middle" dominant-baseline="mathematical" x="972.5" y="340">
			<tspan x="972.5" y="340">4</tspan>
		</text>
	</g>
	<g id="book-10">
		<rect id="book-10_body" class="book" width="110" height="300" x="1075" y="180"/>
	</g>
	<rect id="shelf" class="shelf" width="1120" height="50" x="80" y="485"/>
</svg>
